<svg xmlns="http://www.w3.org/2000/svg" viewBox="0 0 256 256"><defs><linearGradient id="bg" x1="0" y1="0" x2="1" y2="1"><stop offset="0" stop-color="#0B3150"/><stop offset="1" stop-color="#087F76"/></linearGradient></defs><rect width="256" height="256" rx="62" fill="url(#bg)"/><circle cx="128" cy="126" r="83" fill="#8ED0F4" stroke="#D9F2F8" stroke-width="7"/><path d="M58 93c-4-27 9-52 33-62 22-9 46-2 61 15-18 2-33 10-45 24-10 12-15 25-16 41-15-3-26-9-33-18ZM198 93c4-27-9-52-33-62-22-9-46-2-61 15 18 2 33 10 45 24 10 12 15 25 16 41 15-3 26-9 33-18Z" fill="#6BB5E4"/><ellipse cx="93" cy="125" rx="43" ry="48" fill="#fff" stroke="#1E9F59" stroke-width="6"/><ellipse cx="163" cy="125" rx="43" ry="48" fill="#fff" stroke="#1E9F59" stroke-width="6"/><circle cx="98" cy="132" r="10" fill="#1267A8"/><circle cx="158" cy="132" r="10" fill="#1267A8"/><path d="M116 153c8 7 16 7 24 0" fill="none" stroke="#1267A8" stroke-width="4" stroke-linecap="round"/><path d="M128 132l-8 13h16Z" fill="#F2A62B"/><path d="M75 195c16-17 34-24 53-24s37 7 53 24l9 40H66Z" fill="#fff" stroke="#39708E" stroke-width="6"/><path d="M128 174v60" stroke="#C9DCE4" stroke-width="3"/><path d="M151 190h28M165 176v28" stroke="#1E9F59" stroke-width="5" stroke-linecap="round"/></svg>